<svg width="58" height="29" viewBox="0 0 58 29" fill="none" xmlns="http://www.w3.org/2000/svg">
<path d="M26.6925 29V24.5424H22.245V20.079H26.6925V8.91155H22.245V4.4499H17.8047V0H8.90592V4.4499H4.4561V8.91155H0V20.079H4.4561V24.5424H0V29H11.1154V24.5424H15.5582V29H26.6925ZM22.245 17.8327H17.8047V13.3721H22.245V17.8327ZM8.90592 17.8327H4.4561V13.3721H8.90592V17.8327ZM58 29V24.5424H53.5499V20.079H58V4.4499H53.5499V0H49.103V4.4499H40.2059V0H35.7659V4.4499H31.2772V20.079H35.7659V24.5424H31.2772V29H42.4154V20.079H46.8678V29H58ZM53.5499 13.3721H49.103V8.91155H53.5499V13.3721ZM40.2059 13.3721H35.7659V8.91155H40.2059V13.3721Z" fill="#9F58A2"/>
</svg>
